<?xml version="1.0" encoding="UTF-8"?>
<svg id="Layer_2" data-name="Layer 2" xmlns="http://www.w3.org/2000/svg" viewBox="0 0 674.18 93.34">
  <g id="Layer_1-2" data-name="Layer 1">
    <g>
      <path d="M0,0h50.83v21.32h-22.23c-3.9,0-5.72,2.21-5.72,6.5s1.95,6.63,5.59,6.63h17.94v21.45h-17.81c-4.03,0-5.98,2.21-5.98,6.76v28.21H0V0Z"/>
      <path d="M62.93,18.03h13.65v72.85h-13.65V18.03Z"/>
      <path d="M117.68,42.38L91.81,0h29.12l11.05,21.45L143.69,0h29.12l-26.52,42.38,30.81,48.49h-28.6l-16.64-27.56-17.55,27.56h-28.6l31.98-48.49Z"/>
      <path d="M186.23,18.03h36.37v10.94h-15.01c-5.63,0-8.96,3.65-8.96,9.8,0,7.3,4.59,9.9,8.96,9.9h13.76v11.05h-13.76c-5.73,0-9.17,3.75-9.17,10,0,4.9,2.4,10.21,9.17,10.21h15.01v10.94h-36.37V18.03Z"/>
      <path d="M248.04,65.44v25.33h-13.03V17.92h22.62c19.49,0,28.24,6.98,28.24,22.72,0,25.64-24.49,24.18-24.49,24.18,0,0,6.36,16.36,14.49,16.36,3.75,0,7.09-2.92,8.55-9.69h10.84c0,8.44-6.77,20.84-19.38,20.84-18.24,0-27.83-26.89-27.83-26.89ZM259.08,53.04h.52c7.82,0,12.19-4.17,12.19-11.67s-4.38-11.88-12.09-11.88h-.52c-7.71,0-12.19,4.27-12.19,11.67s4.38,11.88,12.09,11.88Z"/>
      <path d="M305.34,60.19V0h23.79v60.19c0,6.89,3.38,9.88,10.4,9.88h.65c7.15,0,10.53-3.12,10.53-9.88V0h23.92v60.19c0,10.92-2.34,33.15-34.06,33.15h-1.56c-30.94,0-33.67-22.23-33.67-33.15Z"/>
      <path d="M389.86,18.03h20.95c6.25,0,29.91-1.46,29.91,22.62,0,21.57-17.3,23.97-24.7,23.97h-13.13v26.26h-13.03V18.03ZM413.93,53.04h.52c7.71,0,12.19-4.17,12.19-11.67s-4.48-11.88-12.09-11.88h-.52c-7.71,0-12.19,4.27-12.19,11.67s4.38,11.88,12.09,11.88Z"/>
      <path d="M451.14,18.03h20.95c6.25,0,29.91-1.46,29.91,22.62,0,21.57-17.3,23.97-24.7,23.97h-13.13v26.26h-13.03V18.03ZM475.22,53.04h.52c7.71,0,12.19-4.17,12.19-11.67s-4.48-11.88-12.09-11.88h-.52c-7.71,0-12.19,4.27-12.19,11.67s4.38,11.88,12.09,11.88Z"/>
      <path d="M512.32,18.03h36.37v10.94h-15.01c-5.63,0-8.96,3.65-8.96,9.8,0,7.3,4.59,9.9,8.96,9.9h13.76v11.05h-13.76c-5.73,0-9.17,3.75-9.17,10,0,4.9,2.4,10.21,9.17,10.21h15.01v10.94h-36.37V18.03Z"/>
      <path d="M574.12,65.44v25.33h-13.03V17.92h22.62c19.49,0,28.24,6.98,28.24,22.72,0,25.64-24.49,24.18-24.49,24.18,0,0,6.36,16.36,14.49,16.36,3.75,0,7.09-2.92,8.55-9.69h10.84c0,8.44-6.77,20.84-19.38,20.84-18.24,0-27.83-26.89-27.83-26.89ZM585.17,53.04h.52c7.82,0,12.19-4.17,12.19-11.67s-4.38-11.88-12.09-11.88h-.52c-7.71,0-12.19,4.27-12.19,11.67s4.38,11.88,12.09,11.88Z"/>
      <path d="M629.47,87.96v-12.61c4.48,0,11.05,5.21,17.93,5.21,7.61,0,12.4-2.92,12.4-9.48,0-7.82-9.8-11.26-13.13-12.4-9.48-3.44-18.24-8.23-18.24-20.64,0-13.13,9.69-21.99,23.97-21.99,7.92,0,15.42,2.81,18.97,4.38v12.51c-3.65,0-10.94-5.11-17.61-5.11s-11.15,2.92-11.15,8.55c0,6.98,7.61,9.59,15.84,12.82,10.63,4.17,15.74,10.32,15.74,20.01,0,8.13-5.42,23.55-25.64,23.55-7.82,0-15.53-3.13-19.07-4.79Z"/>
    </g>
  </g>
</svg>